<svg width="33" height="32" viewBox="0 0 33 32" fill="none" xmlns="http://www.w3.org/2000/svg">
<path d="M16.41 0.699951C7.96999 0.699951 1.10999 7.55995 1.10999 16C1.10999 24.44 7.96999 31.2999 16.41 31.2999C24.85 31.2999 31.71 24.44 31.71 16C31.71 7.55995 24.85 0.699951 16.41 0.699951ZM16.41 28.7C12.39 28.7 8.80999 26.82 6.47999 23.8899C8.10158 21.7686 10.3632 20.2258 12.93 19.49C12.0048 18.9035 11.2428 18.0927 10.7148 17.1329C10.1868 16.1731 9.90998 15.0954 9.90999 14C9.90999 12.276 10.5948 10.6227 11.8138 9.40376C13.0328 8.18477 14.6861 7.49995 16.41 7.49995C18.1339 7.49995 19.7872 8.18477 21.0062 9.40376C22.2252 10.6227 22.91 12.276 22.91 14C22.9108 15.0969 22.6343 16.1763 22.1063 17.1378C21.5784 18.0993 20.816 18.9119 19.89 19.5C22.4571 20.2351 24.7189 21.778 26.34 23.9C25.1536 25.3967 23.6442 26.6059 21.9247 27.4371C20.2051 28.2684 18.3199 28.7 16.41 28.7Z" fill="#717171"/>
</svg>
